<svg xmlns="http://www.w3.org/2000/svg" viewBox="0 0 100 100"><style>.icn{fill:#000}@media(prefers-color-scheme:dark){.icn{fill:#FFF}}</style><path class="icn" d="M99.62,43.8A50.23,50.23,0,0,0,76.9,7.65V23.53A37.54,37.54,0,0,1,87.15,43.8h-20V2.8A48.91,48.91,0,0,0,54.85,0V43.8h-9.7V0A49,49,0,0,0,32.8,2.82v41H12.87A37.72,37.72,0,0,1,23.1,23.56V7.65a50.39,50.39,0,0,0,0,84.7V76.44A37.73,37.73,0,0,1,12.87,56.2H32.8v41A49.39,49.39,0,0,0,45.15,100V56.2h9.7V100A49,49,0,0,0,67.2,97.18v-41h20A37.53,37.53,0,0,1,76.9,76.47V92.35A50.42,50.42,0,0,0,99.62,43.8Z"/></svg>
